<svg xmlns="http://www.w3.org/2000/svg" xmlns:xlink="http://www.w3.org/1999/xlink" width="500" zoomAndPan="magnify" viewBox="0 0 375 374.999991" height="500" preserveAspectRatio="xMidYMid meet" version="1.0"><defs><g/><clipPath id="dfb10f2f17"><path d="M 50.105469 169 L 62 169 L 62 200.050781 L 50.105469 200.050781 Z M 50.105469 169 " clip-rule="nonzero"/></clipPath><clipPath id="16c948f4df"><path d="M 50.105469 160.300781 L 61 160.300781 L 61 173 L 50.105469 173 Z M 50.105469 160.300781 " clip-rule="nonzero"/></clipPath><clipPath id="623d4bafb3"><path d="M 50.105469 162 L 59 162 L 59 175 L 50.105469 175 Z M 50.105469 162 " clip-rule="nonzero"/></clipPath></defs><g clip-path="url(#dfb10f2f17)"><path fill="#43b262" d="M 61.757812 176.378906 C 61.757812 176.964844 61.71875 177.550781 61.675781 178.132812 C 61.609375 178.96875 61.535156 179.804688 61.472656 180.640625 C 61.398438 181.621094 61.324219 182.597656 61.234375 183.578125 C 61.136719 184.667969 61.023438 185.757812 60.882812 186.84375 C 60.75 187.878906 60.589844 188.914062 60.371094 189.933594 C 60.195312 190.75 59.988281 191.566406 59.652344 192.332031 C 59.167969 193.429688 58.632812 194.507812 58.089844 195.582031 C 57.601562 196.542969 57.097656 197.5 56.589844 198.453125 C 56.5625 198.5 56.539062 198.550781 56.511719 198.597656 C 56.515625 198.847656 56.523438 199.101562 56.527344 199.351562 C 56.535156 199.625 56.539062 199.898438 56.546875 200.171875 C 56.546875 200.207031 56.515625 200.234375 56.484375 200.234375 C 56.121094 200.234375 55.753906 200.234375 55.390625 200.234375 C 55.355469 200.234375 55.328125 200.207031 55.328125 200.171875 C 55.328125 200.15625 55.328125 200.140625 55.328125 200.121094 C 55.316406 199.726562 55.316406 199.332031 55.308594 198.9375 C 55.308594 198.757812 55.304688 198.582031 55.300781 198.40625 C 55.085938 198 54.871094 197.59375 54.65625 197.1875 C 54.101562 196.128906 53.554688 195.058594 53.035156 193.980469 C 52.605469 193.101562 52.164062 192.222656 51.882812 191.28125 C 51.609375 190.367188 51.425781 189.425781 51.269531 188.484375 C 51.09375 187.414062 50.960938 186.335938 50.84375 185.257812 C 50.730469 184.199219 50.636719 183.136719 50.554688 182.074219 C 50.484375 181.207031 50.421875 180.34375 50.355469 179.480469 C 50.277344 178.460938 50.160156 177.445312 50.15625 176.421875 C 50.15625 176.289062 50.128906 175.042969 50.539062 175.320312 C 50.675781 175.414062 50.757812 175.605469 50.832031 175.75 C 50.976562 176.039062 51.105469 176.335938 51.234375 176.636719 C 51.628906 177.5625 51.988281 178.503906 52.328125 179.453125 C 52.726562 180.570312 53.097656 181.695312 53.414062 182.835938 C 53.617188 183.574219 53.785156 184.324219 53.933594 185.074219 C 54.074219 185.777344 54.207031 186.480469 54.335938 187.183594 C 54.492188 188.042969 54.648438 188.902344 54.800781 189.765625 C 54.9375 190.519531 55.066406 191.273438 55.199219 192.023438 C 55.183594 190.949219 55.164062 189.871094 55.148438 188.796875 C 55.125 187.324219 55.101562 185.851562 55.078125 184.378906 C 55.054688 182.914062 55.03125 181.445312 55.007812 179.976562 C 54.988281 178.648438 54.964844 177.316406 54.945312 175.984375 C 54.925781 174.886719 54.910156 173.789062 54.890625 172.691406 C 54.878906 171.953125 54.867188 171.214844 54.855469 170.476562 C 54.851562 170.203125 54.847656 169.929688 54.84375 169.65625 C 54.84375 169.632812 54.851562 169.617188 54.867188 169.609375 C 54.878906 169.601562 54.886719 169.59375 54.902344 169.59375 C 55.214844 169.59375 55.527344 169.59375 55.839844 169.59375 C 55.875 169.59375 55.898438 169.621094 55.902344 169.65625 C 55.902344 169.671875 55.902344 169.691406 55.902344 169.707031 C 55.914062 170.101562 55.917969 170.496094 55.925781 170.890625 C 55.945312 171.730469 55.960938 172.570312 55.980469 173.410156 C 56.003906 174.570312 56.027344 175.730469 56.054688 176.890625 C 56.082031 178.269531 56.113281 179.652344 56.140625 181.035156 C 56.171875 182.503906 56.203125 183.976562 56.234375 185.449219 C 56.265625 186.914062 56.296875 188.382812 56.328125 189.851562 C 56.355469 191.160156 56.382812 192.46875 56.410156 193.78125 C 56.558594 192.917969 56.710938 192.054688 56.859375 191.191406 C 57.019531 190.285156 57.179688 189.382812 57.34375 188.476562 C 57.488281 187.679688 57.636719 186.878906 57.785156 186.078125 C 57.898438 185.484375 58.015625 184.894531 58.140625 184.304688 C 58.363281 183.253906 58.664062 182.222656 58.992188 181.199219 C 59.34375 180.109375 59.730469 179.027344 60.148438 177.957031 C 60.433594 177.21875 60.722656 176.476562 61.074219 175.769531 C 61.148438 175.621094 61.226562 175.4375 61.359375 175.332031 C 61.5 175.222656 61.617188 175.320312 61.667969 175.464844 C 61.765625 175.746094 61.757812 176.085938 61.757812 176.378906 Z M 61.757812 176.378906 " fill-opacity="1" fill-rule="nonzero"/></g><g clip-path="url(#16c948f4df)"><path fill="#6e5fb4" d="M 60.558594 166.355469 C 60.429688 167.105469 60.152344 167.824219 59.765625 168.476562 C 59.058594 169.664062 58.019531 170.621094 56.878906 171.382812 C 56.132812 171.878906 55.332031 172.304688 54.5 172.636719 C 54.421875 172.667969 54.339844 172.707031 54.253906 172.714844 C 54.125 172.726562 53.996094 172.722656 53.867188 172.714844 C 53.332031 172.675781 52.804688 172.507812 52.363281 172.199219 C 51.664062 171.707031 51.273438 170.921875 51.105469 170.097656 C 50.972656 169.453125 50.960938 168.785156 51.007812 168.128906 C 51.078125 167.191406 51.261719 166.265625 51.5 165.359375 C 51.535156 165.269531 51.570312 165.183594 51.605469 165.09375 C 51.839844 164.53125 52.117188 163.984375 52.433594 163.464844 C 52.851562 162.785156 53.347656 162.128906 53.984375 161.640625 C 54.519531 161.226562 55.160156 160.890625 55.796875 160.65625 C 56.449219 160.414062 57.164062 160.296875 57.847656 160.476562 C 58.679688 160.691406 59.324219 161.320312 59.765625 162.035156 C 59.9375 162.316406 60.050781 162.632812 60.148438 162.945312 C 60.273438 163.34375 60.367188 163.753906 60.441406 164.167969 C 60.570312 164.875 60.683594 165.636719 60.558594 166.355469 Z M 60.558594 166.355469 " fill-opacity="1" fill-rule="nonzero"/></g><path fill="#9782ff" d="M 60.8125 169.167969 C 60.757812 170.382812 60.570312 171.742188 59.796875 172.726562 C 59.453125 173.167969 58.992188 173.492188 58.457031 173.65625 C 58.078125 173.769531 57.679688 173.792969 57.28125 173.816406 C 56.6875 173.847656 56.089844 173.847656 55.492188 173.808594 C 54.691406 173.757812 53.886719 173.636719 53.113281 173.410156 C 52.839844 173.328125 52.554688 173.238281 52.296875 173.105469 C 52.269531 173.089844 52.257812 173.046875 52.277344 173.019531 C 52.28125 173.015625 52.285156 173.007812 52.289062 173.003906 C 52.371094 172.855469 52.480469 172.714844 52.574219 172.578125 C 52.777344 172.273438 52.980469 171.972656 53.183594 171.671875 C 53.800781 170.757812 54.414062 169.839844 55.027344 168.925781 C 55.738281 167.867188 56.449219 166.808594 57.164062 165.753906 C 57.75 164.878906 58.335938 164.007812 58.921875 163.132812 C 59.167969 162.769531 59.414062 162.402344 59.660156 162.035156 C 59.660156 162.035156 59.664062 162.03125 59.664062 162.03125 C 59.667969 162.027344 59.667969 162.027344 59.667969 162.023438 C 59.789062 161.902344 60 161.890625 60.117188 162.019531 C 60.191406 162.101562 60.183594 162.210938 60.195312 162.3125 C 60.203125 162.398438 60.214844 162.484375 60.222656 162.570312 C 60.25 162.785156 60.28125 163 60.316406 163.214844 C 60.398438 163.792969 60.488281 164.367188 60.5625 164.945312 C 60.746094 166.339844 60.878906 167.757812 60.8125 169.167969 Z M 60.8125 169.167969 " fill-opacity="1" fill-rule="nonzero"/><g clip-path="url(#623d4bafb3)"><path fill="#e7e3fc" d="M 58.246094 173.777344 C 58.242188 173.777344 58.238281 173.78125 58.234375 173.78125 C 58.230469 173.78125 58.230469 173.78125 58.230469 173.78125 C 58.1875 173.789062 58.148438 173.796875 58.105469 173.800781 C 57.242188 173.945312 56.363281 174.019531 55.488281 174.023438 C 54.308594 174.027344 53.023438 173.921875 51.972656 173.34375 C 51.496094 173.082031 51.082031 172.703125 50.84375 172.214844 C 50.628906 171.777344 50.582031 171.300781 50.5625 170.824219 C 50.519531 169.515625 50.664062 168.195312 50.851562 166.902344 C 50.949219 166.214844 51.070312 165.527344 51.222656 164.851562 C 51.347656 164.308594 51.484375 163.765625 51.695312 163.25 C 51.804688 162.984375 51.953125 162.597656 52.234375 162.464844 C 52.472656 162.355469 52.652344 162.570312 52.785156 162.738281 C 53.019531 163.039062 53.214844 163.371094 53.40625 163.703125 C 53.6875 164.1875 53.953125 164.679688 54.210938 165.179688 C 54.84375 166.390625 55.445312 167.621094 56.035156 168.851562 C 56.566406 169.96875 57.089844 171.085938 57.605469 172.210938 C 57.832031 172.703125 58.058594 173.195312 58.28125 173.6875 C 58.285156 173.695312 58.285156 173.699219 58.285156 173.707031 C 58.285156 173.707031 58.285156 173.710938 58.285156 173.710938 C 58.285156 173.714844 58.285156 173.714844 58.285156 173.714844 C 58.292969 173.742188 58.28125 173.773438 58.246094 173.777344 Z M 58.246094 173.777344 " fill-opacity="1" fill-rule="nonzero"/></g><g fill="#9782ff" fill-opacity="1"><g transform="translate(13.145479, 199.124987)"><g><path d="M -0.421875 0.734375 C -0.867188 0.734375 -1.234375 0.523438 -1.515625 0.109375 C -1.796875 -0.304688 -1.9375 -0.847656 -1.9375 -1.515625 C -1.9375 -2.210938 -1.769531 -2.757812 -1.4375 -3.15625 C -1.101562 -3.5625 -0.660156 -3.765625 -0.109375 -3.765625 C 1.148438 -3.765625 2.507812 -4.269531 3.96875 -5.28125 C 5.425781 -6.289062 6.835938 -7.679688 8.203125 -9.453125 C 7.640625 -11.992188 7.359375 -15.546875 7.359375 -20.109375 L 7.359375 -34.625 C 7.359375 -37.519531 7.453125 -39.851562 7.640625 -41.625 C 7.835938 -43.40625 8.164062 -44.890625 8.625 -46.078125 C 9.28125 -47.816406 10.234375 -49.15625 11.484375 -50.09375 C 12.742188 -51.03125 14.226562 -51.5 15.9375 -51.5 C 18.300781 -51.5 20.195312 -50.34375 21.625 -48.03125 C 23.050781 -45.71875 23.765625 -42.609375 23.765625 -38.703125 C 23.765625 -35.398438 23.351562 -31.988281 22.53125 -28.46875 C 21.71875 -24.945312 20.523438 -21.472656 18.953125 -18.046875 C 17.390625 -14.617188 15.492188 -11.390625 13.265625 -8.359375 C 13.367188 -8.109375 13.472656 -7.878906 13.578125 -7.671875 C 14.304688 -6.390625 15.164062 -5.441406 16.15625 -4.828125 C 17.15625 -4.222656 18.382812 -3.921875 19.84375 -3.921875 C 21.414062 -3.921875 22.789062 -4.351562 23.96875 -5.21875 C 25.15625 -6.09375 26.078125 -7.300781 26.734375 -8.84375 C 27.398438 -10.394531 27.734375 -12.179688 27.734375 -14.203125 C 27.734375 -14.929688 27.679688 -15.664062 27.578125 -16.40625 C 25.378906 -17.789062 23.9375 -19.023438 23.25 -20.109375 C 23.488281 -20.804688 23.878906 -21.476562 24.421875 -22.125 C 24.960938 -22.769531 25.5625 -23.289062 26.21875 -23.6875 C 26.882812 -24.082031 27.515625 -24.28125 28.109375 -24.28125 C 28.898438 -24.28125 29.625 -23.851562 30.28125 -23 C 30.945312 -22.15625 31.476562 -21.023438 31.875 -19.609375 C 32.28125 -18.203125 32.484375 -16.644531 32.484375 -14.9375 C 32.484375 -11.800781 31.96875 -9.078125 30.9375 -6.765625 C 29.914062 -4.453125 28.457031 -2.660156 26.5625 -1.390625 C 24.664062 -0.117188 22.425781 0.515625 19.84375 0.515625 C 15.28125 0.515625 11.992188 -1.1875 9.984375 -4.59375 C 6.773438 -1.039062 3.304688 0.734375 -0.421875 0.734375 Z M 11.75 -21.15625 C 11.75 -18.332031 11.835938 -16.015625 12.015625 -14.203125 C 14.421875 -18.316406 16.238281 -22.476562 17.46875 -26.6875 C 18.707031 -30.90625 19.328125 -34.929688 19.328125 -38.765625 C 19.328125 -44.367188 18.109375 -47.171875 15.671875 -47.171875 C 14.242188 -47.171875 13.21875 -46.210938 12.59375 -44.296875 C 12.03125 -42.585938 11.75 -39.578125 11.75 -35.265625 Z M 11.75 -21.15625 "/></g></g></g><g fill="#9782ff" fill-opacity="1"><g transform="translate(50.177101, 199.124987)"><g/></g></g><g fill="#9782ff" fill-opacity="1"><g transform="translate(67.361145, 199.124987)"><g><path d="M -0.046875 -3.765625 C 1.097656 -3.765625 2.21875 -4.3125 3.3125 -5.40625 C 4.414062 -6.5 5.347656 -7.96875 6.109375 -9.8125 C 5.972656 -10.65625 5.90625 -11.507812 5.90625 -12.375 C 5.90625 -14.882812 6.441406 -17.113281 7.515625 -19.0625 C 8.597656 -21.007812 10.070312 -22.550781 11.9375 -23.6875 C 13.800781 -24.820312 15.898438 -25.390625 18.234375 -25.390625 C 20.566406 -25.390625 22.65625 -24.820312 24.5 -23.6875 C 26.34375 -22.550781 27.796875 -21.007812 28.859375 -19.0625 C 29.921875 -17.113281 30.453125 -14.882812 30.453125 -12.375 C 30.453125 -9.875 29.921875 -7.628906 28.859375 -5.640625 C 27.796875 -3.648438 26.347656 -2.085938 24.515625 -0.953125 C 22.691406 0.171875 20.597656 0.734375 18.234375 0.734375 C 16.109375 0.734375 14.179688 0.273438 12.453125 -0.640625 C 10.734375 -1.566406 9.316406 -2.832031 8.203125 -4.4375 C 6.046875 -0.988281 3.171875 0.734375 -0.421875 0.734375 C -0.867188 0.734375 -1.234375 0.523438 -1.515625 0.109375 C -1.796875 -0.304688 -1.9375 -0.847656 -1.9375 -1.515625 C -1.9375 -3.015625 -1.304688 -3.765625 -0.046875 -3.765625 Z M 18.171875 -3.765625 C 20.398438 -3.765625 22.1875 -4.546875 23.53125 -6.109375 C 24.875 -7.679688 25.546875 -9.769531 25.546875 -12.375 C 25.546875 -13.664062 25.351562 -14.851562 24.96875 -15.9375 C 22.875 -16 20.984375 -16.410156 19.296875 -17.171875 C 17.609375 -17.941406 16.273438 -18.988281 15.296875 -20.3125 C 13.910156 -19.726562 12.816406 -18.726562 12.015625 -17.3125 C 11.210938 -15.90625 10.8125 -14.226562 10.8125 -12.28125 C 10.8125 -9.738281 11.476562 -7.679688 12.8125 -6.109375 C 14.15625 -4.546875 15.941406 -3.765625 18.171875 -3.765625 Z M 18.171875 -3.765625 "/></g></g></g><g fill="#9782ff" fill-opacity="1"><g transform="translate(101.676772, 199.124987)"><g><path d="M -0.046875 -3.765625 C 1.097656 -3.765625 2.21875 -4.3125 3.3125 -5.40625 C 4.414062 -6.5 5.347656 -7.96875 6.109375 -9.8125 C 5.972656 -10.65625 5.90625 -11.507812 5.90625 -12.375 C 5.90625 -14.882812 6.441406 -17.113281 7.515625 -19.0625 C 8.597656 -21.007812 10.070312 -22.550781 11.9375 -23.6875 C 13.800781 -24.820312 15.898438 -25.390625 18.234375 -25.390625 C 20.566406 -25.390625 22.65625 -24.820312 24.5 -23.6875 C 26.34375 -22.550781 27.796875 -21.007812 28.859375 -19.0625 C 29.921875 -17.113281 30.453125 -14.882812 30.453125 -12.375 C 30.453125 -9.875 29.921875 -7.628906 28.859375 -5.640625 C 27.796875 -3.648438 26.347656 -2.085938 24.515625 -0.953125 C 22.691406 0.171875 20.597656 0.734375 18.234375 0.734375 C 16.109375 0.734375 14.179688 0.273438 12.453125 -0.640625 C 10.734375 -1.566406 9.316406 -2.832031 8.203125 -4.4375 C 6.046875 -0.988281 3.171875 0.734375 -0.421875 0.734375 C -0.867188 0.734375 -1.234375 0.523438 -1.515625 0.109375 C -1.796875 -0.304688 -1.9375 -0.847656 -1.9375 -1.515625 C -1.9375 -3.015625 -1.304688 -3.765625 -0.046875 -3.765625 Z M 18.171875 -3.765625 C 20.398438 -3.765625 22.1875 -4.546875 23.53125 -6.109375 C 24.875 -7.679688 25.546875 -9.769531 25.546875 -12.375 C 25.546875 -13.664062 25.351562 -14.851562 24.96875 -15.9375 C 22.875 -16 20.984375 -16.410156 19.296875 -17.171875 C 17.609375 -17.941406 16.273438 -18.988281 15.296875 -20.3125 C 13.910156 -19.726562 12.816406 -18.726562 12.015625 -17.3125 C 11.210938 -15.90625 10.8125 -14.226562 10.8125 -12.28125 C 10.8125 -9.738281 11.476562 -7.679688 12.8125 -6.109375 C 14.15625 -4.546875 15.941406 -3.765625 18.171875 -3.765625 Z M 18.171875 -3.765625 "/></g></g></g><g fill="#9782ff" fill-opacity="1"><g transform="translate(135.992406, 199.124987)"><g><path d="M -0.421875 0.734375 C -0.867188 0.734375 -1.234375 0.523438 -1.515625 0.109375 C -1.796875 -0.304688 -1.9375 -0.847656 -1.9375 -1.515625 C -1.9375 -3.015625 -1.304688 -3.765625 -0.046875 -3.765625 C 1.066406 -3.765625 2.066406 -4.328125 2.953125 -5.453125 C 3.835938 -6.585938 4.613281 -8.476562 5.28125 -11.125 L 6.84375 -17.234375 C 8.300781 -22.671875 11.085938 -25.390625 15.203125 -25.390625 C 16.703125 -25.390625 17.976562 -24.960938 19.03125 -24.109375 C 20.09375 -23.253906 20.851562 -22.078125 21.3125 -20.578125 C 22.113281 -22.109375 23.164062 -23.289062 24.46875 -24.125 C 25.78125 -24.96875 27.253906 -25.390625 28.890625 -25.390625 C 32.296875 -25.390625 34.609375 -23.628906 35.828125 -20.109375 C 36.671875 -21.785156 37.804688 -23.082031 39.234375 -24 C 40.660156 -24.925781 42.273438 -25.390625 44.078125 -25.390625 C 46.554688 -25.390625 48.457031 -24.601562 49.78125 -23.03125 C 51.101562 -21.46875 51.765625 -19.257812 51.765625 -16.40625 L 51.765625 -9.140625 C 51.765625 -7.117188 52.035156 -5.71875 52.578125 -4.9375 C 53.117188 -4.15625 53.910156 -3.765625 54.953125 -3.765625 C 55.441406 -3.765625 55.816406 -3.550781 56.078125 -3.125 C 56.335938 -2.707031 56.46875 -2.15625 56.46875 -1.46875 C 56.46875 -0.90625 56.316406 -0.398438 56.015625 0.046875 C 55.722656 0.503906 55.242188 0.734375 54.578125 0.734375 C 52.460938 0.734375 50.671875 0.0078125 49.203125 -1.4375 C 47.742188 -2.882812 47.015625 -5.257812 47.015625 -8.5625 L 47.015625 -15.25 C 47.015625 -17.0625 46.679688 -18.453125 46.015625 -19.421875 C 45.359375 -20.398438 44.421875 -20.890625 43.203125 -20.890625 C 41.347656 -20.890625 39.890625 -19.835938 38.828125 -17.734375 C 37.773438 -15.628906 37.25 -12.710938 37.25 -8.984375 L 37.25 0 C 36.894531 0.101562 36.507812 0.1875 36.09375 0.25 C 35.675781 0.320312 35.273438 0.359375 34.890625 0.359375 C 34.054688 0.359375 33.253906 0.238281 32.484375 0 L 32.484375 -14.515625 C 32.484375 -16.578125 32.125 -18.15625 31.40625 -19.25 C 30.695312 -20.34375 29.648438 -20.890625 28.265625 -20.890625 C 26.972656 -20.890625 25.851562 -20.394531 24.90625 -19.40625 C 23.96875 -18.414062 23.226562 -17.019531 22.6875 -15.21875 C 22.15625 -13.425781 21.890625 -11.347656 21.890625 -8.984375 L 21.890625 0 C 21.535156 0.101562 21.148438 0.1875 20.734375 0.25 C 20.316406 0.320312 19.914062 0.359375 19.53125 0.359375 C 18.664062 0.359375 17.882812 0.238281 17.1875 0 L 17.1875 -16.65625 C 17.1875 -19.476562 16.382812 -20.890625 14.78125 -20.890625 C 14.050781 -20.890625 13.425781 -20.554688 12.90625 -19.890625 C 12.382812 -19.234375 11.929688 -18.175781 11.546875 -16.71875 L 9.609375 -9.1875 C 8.703125 -5.738281 7.445312 -3.222656 5.84375 -1.640625 C 4.25 -0.0546875 2.160156 0.734375 -0.421875 0.734375 Z M -0.421875 0.734375 "/></g></g></g><g fill="#9782ff" fill-opacity="1"><g transform="translate(192.349301, 199.124987)"><g><path d="M -0.421875 0.734375 C -0.867188 0.734375 -1.234375 0.523438 -1.515625 0.109375 C -1.796875 -0.304688 -1.9375 -0.847656 -1.9375 -1.515625 C -1.9375 -3.015625 -1.304688 -3.765625 -0.046875 -3.765625 C 1.066406 -3.765625 2.066406 -4.328125 2.953125 -5.453125 C 3.835938 -6.585938 4.613281 -8.476562 5.28125 -11.125 L 6.84375 -17.234375 C 8.300781 -22.671875 11.085938 -25.390625 15.203125 -25.390625 C 16.703125 -25.390625 17.976562 -24.960938 19.03125 -24.109375 C 20.09375 -23.253906 20.851562 -22.078125 21.3125 -20.578125 C 22.113281 -22.109375 23.164062 -23.289062 24.46875 -24.125 C 25.78125 -24.96875 27.253906 -25.390625 28.890625 -25.390625 C 32.296875 -25.390625 34.609375 -23.628906 35.828125 -20.109375 C 36.671875 -21.785156 37.804688 -23.082031 39.234375 -24 C 40.660156 -24.925781 42.273438 -25.390625 44.078125 -25.390625 C 46.554688 -25.390625 48.457031 -24.601562 49.78125 -23.03125 C 51.101562 -21.46875 51.765625 -19.257812 51.765625 -16.40625 L 51.765625 -9.140625 C 51.765625 -7.117188 52.035156 -5.71875 52.578125 -4.9375 C 53.117188 -4.15625 53.910156 -3.765625 54.953125 -3.765625 C 55.441406 -3.765625 55.816406 -3.550781 56.078125 -3.125 C 56.335938 -2.707031 56.46875 -2.15625 56.46875 -1.46875 C 56.46875 -0.90625 56.316406 -0.398438 56.015625 0.046875 C 55.722656 0.503906 55.242188 0.734375 54.578125 0.734375 C 52.460938 0.734375 50.671875 0.0078125 49.203125 -1.4375 C 47.742188 -2.882812 47.015625 -5.257812 47.015625 -8.5625 L 47.015625 -15.25 C 47.015625 -17.0625 46.679688 -18.453125 46.015625 -19.421875 C 45.359375 -20.398438 44.421875 -20.890625 43.203125 -20.890625 C 41.347656 -20.890625 39.890625 -19.835938 38.828125 -17.734375 C 37.773438 -15.628906 37.25 -12.710938 37.25 -8.984375 L 37.25 0 C 36.894531 0.101562 36.507812 0.1875 36.09375 0.25 C 35.675781 0.320312 35.273438 0.359375 34.890625 0.359375 C 34.054688 0.359375 33.253906 0.238281 32.484375 0 L 32.484375 -14.515625 C 32.484375 -16.578125 32.125 -18.15625 31.40625 -19.25 C 30.695312 -20.34375 29.648438 -20.890625 28.265625 -20.890625 C 26.972656 -20.890625 25.851562 -20.394531 24.90625 -19.40625 C 23.96875 -18.414062 23.226562 -17.019531 22.6875 -15.21875 C 22.15625 -13.425781 21.890625 -11.347656 21.890625 -8.984375 L 21.890625 0 C 21.535156 0.101562 21.148438 0.1875 20.734375 0.25 C 20.316406 0.320312 19.914062 0.359375 19.53125 0.359375 C 18.664062 0.359375 17.882812 0.238281 17.1875 0 L 17.1875 -16.65625 C 17.1875 -19.476562 16.382812 -20.890625 14.78125 -20.890625 C 14.050781 -20.890625 13.425781 -20.554688 12.90625 -19.890625 C 12.382812 -19.234375 11.929688 -18.175781 11.546875 -16.71875 L 9.609375 -9.1875 C 8.703125 -5.738281 7.445312 -3.222656 5.84375 -1.640625 C 4.25 -0.0546875 2.160156 0.734375 -0.421875 0.734375 Z M -0.421875 0.734375 "/></g></g></g><g fill="#9782ff" fill-opacity="1"><g transform="translate(248.706185, 199.124987)"><g><path d="M -0.046875 -3.765625 C 1.128906 -3.765625 2.285156 -4.347656 3.421875 -5.515625 C 4.554688 -6.679688 5.503906 -8.253906 6.265625 -10.234375 C 6.234375 -10.722656 6.21875 -11.210938 6.21875 -11.703125 C 6.21875 -14.347656 6.738281 -16.695312 7.78125 -18.75 C 8.820312 -20.800781 10.238281 -22.421875 12.03125 -23.609375 C 13.832031 -24.796875 15.878906 -25.390625 18.171875 -25.390625 C 19.390625 -25.390625 20.59375 -25.148438 21.78125 -24.671875 C 22.96875 -24.203125 23.960938 -23.570312 24.765625 -22.78125 L 24.765625 -24.921875 C 25.078125 -25.023438 25.441406 -25.109375 25.859375 -25.171875 C 26.273438 -25.242188 26.707031 -25.28125 27.15625 -25.28125 C 28 -25.28125 28.785156 -25.160156 29.515625 -24.921875 L 29.515625 -9.609375 C 29.515625 -7.765625 29.800781 -6.328125 30.375 -5.296875 C 30.945312 -4.273438 31.910156 -3.765625 33.265625 -3.765625 C 33.859375 -3.765625 34.257812 -3.519531 34.46875 -3.03125 C 34.675781 -2.539062 34.78125 -2.019531 34.78125 -1.46875 C 34.78125 -0.90625 34.632812 -0.398438 34.34375 0.046875 C 34.050781 0.503906 33.570312 0.734375 32.90625 0.734375 C 29.488281 0.734375 27.207031 -0.796875 26.0625 -3.859375 C 25.050781 -2.429688 23.785156 -1.304688 22.265625 -0.484375 C 20.753906 0.328125 19.078125 0.734375 17.234375 0.734375 C 15.210938 0.734375 13.425781 0.289062 11.875 -0.59375 C 10.332031 -1.488281 9.070312 -2.71875 8.09375 -4.28125 C 5.9375 -0.9375 3.097656 0.734375 -0.421875 0.734375 C -0.867188 0.734375 -1.234375 0.523438 -1.515625 0.109375 C -1.796875 -0.304688 -1.9375 -0.847656 -1.9375 -1.515625 C -1.9375 -3.015625 -1.304688 -3.765625 -0.046875 -3.765625 Z M 11.078125 -11.703125 C 11.078125 -9.222656 11.640625 -7.28125 12.765625 -5.875 C 13.898438 -4.46875 15.460938 -3.765625 17.453125 -3.765625 C 19.640625 -3.765625 21.40625 -4.570312 22.75 -6.1875 C 24.09375 -7.8125 24.765625 -9.945312 24.765625 -12.59375 L 24.765625 -17.765625 C 24.066406 -18.703125 23.175781 -19.457031 22.09375 -20.03125 C 21.007812 -20.601562 19.894531 -20.890625 18.75 -20.890625 C 17.25 -20.890625 15.925781 -20.488281 14.78125 -19.6875 C 13.632812 -18.882812 12.726562 -17.796875 12.0625 -16.421875 C 11.40625 -15.046875 11.078125 -13.472656 11.078125 -11.703125 Z M 11.078125 -11.703125 "/></g></g></g><g fill="#9782ff" fill-opacity="1"><g transform="translate(283.387435, 199.124987)"><g><path d="M -0.046875 -3.765625 C 0.816406 -3.765625 1.816406 -4.023438 2.953125 -4.546875 C 4.085938 -5.066406 5.191406 -5.953125 6.265625 -7.203125 C 7.347656 -8.460938 8.238281 -10.160156 8.9375 -12.296875 C 9.632812 -14.441406 9.984375 -17.132812 9.984375 -20.375 L 9.984375 -25.390625 L 6.109375 -25.390625 C 5.867188 -25.941406 5.75 -26.632812 5.75 -27.46875 C 5.75 -28.3125 5.867188 -29.007812 6.109375 -29.5625 L 9.984375 -29.5625 L 9.984375 -38.8125 C 10.640625 -39.050781 11.4375 -39.171875 12.375 -39.171875 C 13.21875 -39.171875 14.019531 -39.050781 14.78125 -38.8125 L 14.78125 -29.5625 L 22.5625 -29.5625 C 22.84375 -29.007812 22.984375 -28.3125 22.984375 -27.46875 C 22.984375 -26.632812 22.84375 -25.941406 22.5625 -25.390625 L 14.78125 -25.390625 L 14.78125 -14.578125 C 14.78125 -11.085938 15.3125 -8.410156 16.375 -6.546875 C 17.4375 -4.691406 18.941406 -3.765625 20.890625 -3.765625 C 21.898438 -3.765625 22.40625 -3 22.40625 -1.46875 C 22.40625 -0.800781 22.238281 -0.269531 21.90625 0.125 C 21.582031 0.53125 21.125 0.734375 20.53125 0.734375 C 18.269531 0.734375 16.363281 0.0859375 14.8125 -1.203125 C 13.257812 -2.492188 12.117188 -4.285156 11.390625 -6.578125 C 9.921875 -4.078125 8.125 -2.234375 6 -1.046875 C 3.882812 0.140625 1.742188 0.734375 -0.421875 0.734375 C -0.867188 0.734375 -1.234375 0.515625 -1.515625 0.078125 C -1.796875 -0.359375 -1.9375 -0.890625 -1.9375 -1.515625 C -1.9375 -2.171875 -1.78125 -2.707031 -1.46875 -3.125 C -1.15625 -3.550781 -0.679688 -3.765625 -0.046875 -3.765625 Z M -0.046875 -3.765625 "/></g></g></g><g fill="#9782ff" fill-opacity="1"><g transform="translate(305.690045, 199.124987)"><g><path d="M -0.421875 0.734375 C -0.867188 0.734375 -1.234375 0.523438 -1.515625 0.109375 C -1.796875 -0.304688 -1.9375 -0.847656 -1.9375 -1.515625 C -1.9375 -3.015625 -1.304688 -3.765625 -0.046875 -3.765625 C 0.960938 -3.765625 1.988281 -3.925781 3.03125 -4.25 C 4.070312 -4.582031 5.289062 -5.148438 6.6875 -5.953125 C 5.332031 -8.316406 4.65625 -11.101562 4.65625 -14.3125 C 4.65625 -16.46875 5.050781 -18.375 5.84375 -20.03125 C 6.644531 -21.6875 7.757812 -22.992188 9.1875 -23.953125 C 10.613281 -24.910156 12.234375 -25.390625 14.046875 -25.390625 C 15.578125 -25.390625 16.9375 -25.03125 18.125 -24.3125 C 19.3125 -23.601562 20.234375 -22.617188 20.890625 -21.359375 C 21.554688 -20.109375 21.890625 -18.664062 21.890625 -17.03125 C 21.890625 -14.800781 21.234375 -12.765625 19.921875 -10.921875 C 18.617188 -9.078125 16.414062 -7.070312 13.3125 -4.90625 C 14.425781 -4.101562 15.925781 -3.703125 17.8125 -3.703125 C 18.300781 -3.703125 18.679688 -3.492188 18.953125 -3.078125 C 19.234375 -2.660156 19.375 -2.101562 19.375 -1.40625 C 19.375 -0.75 19.21875 -0.226562 18.90625 0.15625 C 18.59375 0.539062 18.140625 0.734375 17.546875 0.734375 C 15.878906 0.734375 14.3125 0.457031 12.84375 -0.09375 C 11.382812 -0.65625 10.164062 -1.425781 9.1875 -2.40625 C 5.84375 -0.3125 2.640625 0.734375 -0.421875 0.734375 Z M 9.1875 -14.734375 C 9.1875 -11.984375 9.675781 -9.789062 10.65625 -8.15625 C 12.914062 -9.71875 14.59375 -11.242188 15.6875 -12.734375 C 16.789062 -14.234375 17.34375 -15.664062 17.34375 -17.03125 C 17.34375 -18.28125 17.035156 -19.257812 16.421875 -19.96875 C 15.816406 -20.6875 14.972656 -21.046875 13.890625 -21.046875 C 12.535156 -21.046875 11.410156 -20.4375 10.515625 -19.21875 C 9.628906 -18 9.1875 -16.503906 9.1875 -14.734375 Z M 9.1875 -14.734375 "/></g></g></g><g fill="#9782ff" fill-opacity="1"><g transform="translate(330.13412, 199.124987)"><g><path d="M -0.421875 0.734375 C -0.867188 0.734375 -1.234375 0.523438 -1.515625 0.109375 C -1.796875 -0.304688 -1.9375 -0.847656 -1.9375 -1.515625 C -1.9375 -3.015625 -1.304688 -3.765625 -0.046875 -3.765625 C 1.066406 -3.765625 2.300781 -4.453125 3.65625 -5.828125 C 5.007812 -7.203125 6.59375 -9.421875 8.40625 -12.484375 L 14 -21.9375 C 13.925781 -22.425781 13.890625 -22.945312 13.890625 -23.5 C 13.890625 -25.25 14.210938 -26.539062 14.859375 -27.375 C 15.503906 -28.207031 16.035156 -28.710938 16.453125 -28.890625 C 17.046875 -29.023438 17.679688 -29.015625 18.359375 -28.859375 C 19.035156 -28.703125 19.648438 -28.445312 20.203125 -28.09375 C 20.765625 -27.75 21.148438 -27.332031 21.359375 -26.84375 C 21.222656 -26.21875 20.960938 -25.46875 20.578125 -24.59375 C 20.191406 -23.726562 19.582031 -22.566406 18.75 -21.109375 C 19 -20.722656 19.3125 -20.335938 19.6875 -19.953125 C 20.070312 -19.566406 20.546875 -19.148438 21.109375 -18.703125 L 25.078125 -15.46875 C 26.503906 -14.3125 27.570312 -13.113281 28.28125 -11.875 C 29 -10.644531 29.359375 -9.265625 29.359375 -7.734375 C 29.359375 -5.890625 28.832031 -4.253906 27.78125 -2.828125 C 27.957031 -2.441406 28.046875 -1.988281 28.046875 -1.46875 C 28.046875 -0.800781 27.878906 -0.269531 27.546875 0.125 C 27.222656 0.53125 26.765625 0.734375 26.171875 0.734375 C 25.609375 0.734375 25.066406 0.695312 24.546875 0.625 C 24.023438 0.550781 23.453125 0.460938 22.828125 0.359375 C 21.890625 0.609375 20.894531 0.734375 19.84375 0.734375 C 18.625 0.734375 17.40625 0.550781 16.1875 0.1875 C 14.96875 -0.175781 13.695312 -0.757812 12.375 -1.5625 C 12.3125 -3.40625 13.007812 -4.765625 14.46875 -5.640625 C 16.382812 -4.390625 18.195312 -3.765625 19.90625 -3.765625 C 21.363281 -3.765625 22.523438 -4.15625 23.390625 -4.9375 C 24.265625 -5.71875 24.703125 -6.71875 24.703125 -7.9375 C 24.703125 -9.46875 23.867188 -10.894531 22.203125 -12.21875 L 18.234375 -15.359375 C 17.535156 -15.910156 16.90625 -16.484375 16.34375 -17.078125 L 11.125 -8.25 C 9.207031 -5.007812 7.367188 -2.703125 5.609375 -1.328125 C 3.859375 0.046875 1.847656 0.734375 -0.421875 0.734375 Z M -0.421875 0.734375 "/></g></g></g></svg>